<svg version="1.1" xmlns="http://www.w3.org/2000/svg" xmlns:xlink="http://www.w3.org/1999/xlink" width="399.37322" height="334.8548" viewBox="0,0,399.37322,334.8548"><g transform="translate(-40.31339,-12.5726)"><g data-paper-data="{&quot;isPaintingLayer&quot;:true}" fill="#ff0000" fill-rule="nonzero" stroke="none" stroke-width="0.5" stroke-linecap="butt" stroke-linejoin="miter" stroke-miterlimit="10" stroke-dasharray="" stroke-dashoffset="0" style="mix-blend-mode: normal"><path d="M90.66117,74.38932c-0.6811,1.70275 -2.38386,1.02166 -2.38386,1.02166l-0.73011,-0.29987c-3.01194,-0.90358 -5.85122,-1.04231 -8.78045,-1.07562c0,1.55679 0,3.11359 0,4.67037c0,5.96796 0.58667,12.22665 -0.37865,18.11709c0,0 -0.3015,1.80897 -2.11047,1.50748c-1.80897,-0.3015 -1.50748,-2.11047 -1.50748,-2.11047c0.96238,-5.66506 0.32874,-11.76666 0.32874,-17.51409c0,-1.5679 0,-3.13578 0,-4.70368c-0.60929,-0.01155 -1.22648,-0.02971 -1.85367,-0.05973c-2.80994,-0.13452 -5.81776,-0.73931 -8.64445,-0.35936c-1.81611,0.24411 -3.61865,0.77711 -5.45014,0.71853c-1.97563,-0.06318 -3.76156,-0.92691 -5.76402,-0.71104c-1.5855,0.17092 -3.08013,1.00614 -4.67479,1.01664c-0.03467,0.00023 -0.06932,0.00022 -0.10396,-0.00001l0.00384,0.02112l-1.90972,0.34722c-0.11754,0.02364 -0.23915,0.03605 -0.36366,0.03605c-1.01285,0 -1.83392,-0.82108 -1.83392,-1.83392c0,-0.43871 0.15404,-0.84144 0.411,-1.15705l1.32641,-1.65801c1.90477,-3.54611 4.50412,-6.49102 6.69589,-9.85945c1.24742,-1.9171 1.91707,-3.62419 2.87281,-5.59303c2.30656,-4.75154 6.78605,-9.1754 9.96403,-13.38918c0.68429,-0.90732 3.68339,-4.86481 4.34379,-5.81579c0.49192,-0.70837 3.43715,-5.44541 3.80461,-5.7797c0.04473,-0.0407 0.09013,-0.08049 0.13614,-0.11943l-0.01466,-0.01466l1.59162,-1.59162c0.33187,-0.33187 0.79036,-0.53714 1.29678,-0.53714c1.01285,0 1.83392,0.82108 1.83392,1.83392c0,4.18537 0,10.8466 0,15.03197c0,8.62183 0,17.24365 0,25.86548c3.28516,0.04826 6.44699,0.18775 9.8344,1.20397l1.03836,0.40752c0,0 1.70275,0.6811 1.02166,2.38386zM75.09891,70.33929c0,-8.6036 0,-17.20719 0,-25.81079c0,-3.06676 0,-6.13353 0,-9.20029c-1.33139,1.96511 -3.04948,3.94831 -4.1821,5.46581c-2.44706,3.27862 -4.88774,6.57182 -7.38933,9.80932c-1.42847,1.84869 -3.37697,3.69498 -4.37863,5.82622c-0.99682,2.12095 -1.8106,4.04486 -3.13998,6.07886c-1.7655,2.70128 -3.79327,5.13577 -5.50491,7.8273c2.44747,-0.44737 4.40319,-0.47081 6.93682,-0.02583c2.49525,0.43824 4.27582,-0.05789 6.71185,-0.36717c3.05613,-0.38802 6.22917,0.18889 9.269,0.33613c0.56659,0.02744 1.12519,0.04649 1.67726,0.06044z"/><path d="M127.14183,31.69882c-2.23243,1.95174 -4.2008,4.39812 -5.69045,6.7442c-2.08802,3.28848 -4.90204,6.59101 -6.42655,10.22176c-0.948,2.25774 -1.29369,4.42054 -1.82201,6.71901c-0.37563,1.63421 -1.20678,3.14004 -1.59101,4.77225c-0.64551,2.74213 -0.66029,5.34121 -0.66029,8.14028c-0.36684,4.769 0.00153,8.91525 0.85509,13.5675c0.37904,2.06589 0.49082,3.56384 1.56809,5.45502c2.19802,3.85872 5.29593,7.22521 9.58769,8.7007c2.00418,0.68903 4.24161,0.96839 6.28192,1.56568c1.34544,0.39388 2.52389,1.37513 3.91709,1.53117c2.77206,0.31048 5.48978,-2.51639 7.16136,-4.33898c1.47766,-3.00436 3.2723,-5.99844 5.39085,-8.60347c1.66274,-2.04454 4.08762,-4.25963 4.78618,-6.93377c1.78709,-6.84118 2.99957,-14.82088 2.41796,-22.00432c-0.17435,-2.15339 -0.76869,-3.64491 -1.33761,-5.61724c-0.55707,-1.93128 -0.66896,-4.19352 -1.0833,-6.18657c-3.85819,-3.5246 -8.00518,-6.925 -12.32783,-9.80937c-1.7946,-1.19748 -1.76444,-1.67538 -3.65791,-2.27253c-2.35854,-0.74382 -3.27317,-0.81461 -5.51047,-1.15682l-1.08372,-0.18047c0,0 -0.38828,-0.06472 -0.77508,-0.31406zM130.25543,28.67428c1.97705,0.29753 3.17962,0.46255 5.46433,1.21291c4.19966,1.37927 7.6944,4.99129 11.00084,7.74784c2.41344,2.01206 4.78953,3.69658 6.968,5.9899c0.61761,2.2409 0.74465,4.70533 1.39255,6.90009c0.64461,2.18359 1.30437,4.03779 1.49194,6.40835c0.29052,3.67157 -0.0424,7.35935 -0.55783,10.97422c-0.5959,4.17926 -0.81859,8.2695 -1.97592,12.29422c-0.92926,3.2316 -3.41772,5.76014 -5.47093,8.27505c-2.0676,2.53252 -3.74678,5.46944 -5.21996,8.37382c-2.63685,2.9192 -6.19216,6.23548 -10.52332,5.91814c-0.79408,-0.05818 -3.75522,-1.41492 -4.57155,-1.65206c-2.09375,-0.60822 -4.39779,-0.89649 -6.45105,-1.61756c-5.13345,-1.80278 -9.02389,-5.70343 -11.63392,-10.39875c-3.30459,-5.9448 -3.38484,-14.41084 -2.88222,-20.94485c0,-3.03111 0.05535,-5.86447 0.75448,-8.83701c0.38432,-1.63402 1.22453,-3.13963 1.59223,-4.77748c0.56678,-2.52461 1.02151,-4.97013 2.06862,-7.42873c1.60899,-3.77787 4.47781,-7.22419 6.66011,-10.64616c2.27179,-3.56228 5.44283,-7.14502 9.01614,-9.5567c0,0 1.52592,-1.01728 2.5432,0.50864c0.31501,0.47251 0.38616,0.89625 0.33426,1.25612z"/><path d="M220.10794,77.7094c0,1.83392 -1.83392,1.83392 -1.83392,1.83392h-2.04903c-3.62831,0 -7.21015,-0.11254 -10.81419,0.33796c-0.01304,0 -0.02607,0.00001 -0.03911,0.00002c0.06893,2.23424 0.25814,4.48099 0.01636,6.68793c-0.90423,8.25396 -1.78643,16.79602 -3.41546,24.96726c0,0 -0.35966,1.79831 -2.15797,1.43865c-1.79831,-0.35966 -1.43865,-2.15797 -1.43865,-2.15797c1.6159,-8.05249 2.44382,-16.46355 3.36086,-24.59667c0.23161,-2.05413 0.07579,-4.15109 -0.00386,-6.2389c-4.09385,0.19478 -8.20746,0.57655 -12.29659,0.23847c-4.67852,-0.3868 -9.11667,-0.66736 -13.85042,-0.67676c-1.81322,-0.0036 -7.56286,1.94373 -8.73162,-0.18677c-0.67819,-1.23625 0.47908,-2.81794 1.09679,-4.08549c0.77669,-1.5938 2.43624,-2.63097 3.26736,-4.19707c1.53704,-2.89629 3.13173,-5.78497 4.82842,-8.625c1.33563,-2.38399 1.82491,-4.66106 3.01013,-7.05178c1.08898,-2.19659 2.74092,-4.45619 3.69289,-6.68195c0.27954,-0.65359 0.05916,-1.45861 0.36233,-2.10158c0.90321,-1.91553 2.70824,-3.26669 3.88223,-5.02931c0.79841,-1.19873 1.29345,-2.61235 2.25117,-3.68807c2.34447,-2.63333 4.96578,-4.53475 6.95358,-7.55487c0.98309,-1.49363 1.21112,-3.371 1.97729,-4.98667c1.00776,-2.12514 1.84857,-3.50531 3.00808,-4.82175l-0.19236,-0.11542l1.00722,-1.6787c0.31678,-0.54939 0.91013,-0.9192 1.58987,-0.9192c0.95193,0 1.73447,0.72528 1.82515,1.65339l0.33906,3.05155l-0.02823,0.00314l0.03664,0.09797c0.00891,10.36596 -0.70528,21.00134 0.33302,31.31663c0.63054,5.12356 1.06214,10.36111 0.54235,15.52953c-0.26364,2.62146 -0.91707,4.22766 -1.17593,6.71488c3.58466,-0.42034 7.15443,-0.31132 10.76362,-0.31132h2.04903c0,0 1.83392,0 1.83392,1.83392zM201.76626,76.31291c0.20318,-2.42812 0.977,-4.78386 1.22166,-7.2086c0.49559,-4.91162 0.06022,-9.88777 -0.53823,-14.75553c-0.93499,-9.40774 -0.47145,-19.06515 -0.36846,-28.55669c-0.20884,0.37332 -0.40924,0.751 -0.59221,1.13755c-0.80861,1.7083 -1.09811,3.66904 -2.12077,5.25847c-1.17805,1.83095 -2.5187,3.57291 -4.03003,5.14009c-1.45757,1.51142 -3.40252,2.54207 -4.50757,4.42205c-0.31583,0.5373 -0.35296,1.21579 -0.69888,1.73423c-0.32795,0.49151 -3.22579,3.6309 -3.63088,4.53281c-0.27615,0.61486 -0.05474,1.37714 -0.32068,1.99648c-0.99484,2.31686 -2.67033,4.69985 -3.82021,6.97824c-1.23313,2.44335 -1.77233,4.8169 -3.13696,7.2914c-2.26375,3.75517 -3.97605,7.99132 -6.64148,11.49414c-0.0547,0.07188 -0.115,0.15012 -0.17994,0.23248c0.31224,-0.04514 0.62539,-0.08324 0.93517,-0.12362c3.02774,-0.39475 6.37077,-0.01286 9.42074,-0.01095c2.38905,0.0015 4.6241,0.49106 6.98135,0.68925c3.99616,0.336 8.02355,-0.06014 12.02737,-0.25182z"/><path d="M301.41705,78.0366c-0.72723,1.81807 -2.54531,1.09085 -2.54531,1.09085l-0.77955,-0.32018c-3.21592,-0.96478 -6.24749,-1.1129 -9.3751,-1.14846c0,1.66222 0,3.32445 0,4.98667c0,6.37213 0.6264,13.0547 -0.40429,19.34406c0,0 -0.32192,1.93148 -2.2534,1.60957c-1.93148,-0.32192 -1.60957,-2.2534 -1.60957,-2.2534c1.02755,-6.04872 0.35101,-12.56356 0.35101,-18.70023c0,-1.67408 0,-3.34815 0,-5.02223c-0.65055,-0.01234 -1.30954,-0.03172 -1.97921,-0.06378c-3.00024,-0.14363 -6.21176,-0.78938 -9.2299,-0.3837c-1.9391,0.26064 -3.86372,0.82974 -5.81925,0.76719c-2.10943,-0.06746 -4.01631,-0.98968 -6.15438,-0.7592c-1.69288,0.1825 -3.28874,1.07428 -4.99139,1.08549c-0.03702,0.00024 -0.07402,0.00023 -0.111,-0.00002l0.0041,0.02255l-2.03905,0.37074c-0.1255,0.02524 -0.25535,0.0385 -0.38829,0.0385c-1.08144,0 -1.95813,-0.87668 -1.95813,-1.95813c0,-0.46842 0.16447,-0.89843 0.43883,-1.23541l1.41624,-1.7703c2.03377,-3.78626 4.80916,-6.93062 7.14937,-10.52719c1.3319,-2.04694 2.0469,-3.86963 3.06737,-5.97182c2.46277,-5.07333 7.24563,-9.7968 10.63885,-14.29596c0.73063,-0.96877 3.93285,-5.19427 4.63797,-6.20967c0.52523,-0.75635 3.66993,-5.8142 4.06228,-6.17113c0.04776,-0.04345 0.09623,-0.08594 0.14536,-0.12751l-0.01566,-0.01566l1.69941,-1.69941c0.35435,-0.35435 0.84388,-0.57352 1.38461,-0.57352c1.08144,0 1.95813,0.87668 1.95813,1.95813c0,4.46883 0,11.58118 0,16.05001c0,9.20574 0,18.41147 0,27.61721c3.50765,0.05153 6.88361,0.20047 10.50043,1.28551l1.10868,0.43512c0,0 1.81807,0.72723 1.09085,2.54531zM284.80085,73.71228c0,-9.18628 0,-18.37254 0,-27.55882c0,-3.27446 0,-6.54892 0,-9.82338c-1.42156,2.0982 -3.256,4.21571 -4.46533,5.83598c-2.61279,3.50066 -5.21876,7.0169 -7.88977,10.47366c-1.52522,1.97389 -3.60568,3.94523 -4.67517,6.2208c-1.06433,2.26459 -1.93323,4.3188 -3.35263,6.49055c-1.88507,2.88423 -4.05017,5.48359 -5.87773,8.3574c2.61323,-0.47767 4.7014,-0.5027 7.40661,-0.02758c2.66424,0.46792 4.5654,-0.06181 7.16641,-0.39204c3.26311,-0.4143 6.65103,0.20168 9.89675,0.35889c0.60497,0.0293 1.2014,0.04964 1.79086,0.06453z"/><path d="M340.36836,32.4549c-2.38362,2.08392 -4.4853,4.69599 -6.07583,7.20095c-2.22943,3.51119 -5.23402,7.03739 -6.86178,10.91403c-1.0122,2.41064 -1.38131,4.71992 -1.94541,7.17406c-0.40107,1.74489 -1.28851,3.3527 -1.69876,5.09545c-0.68923,2.92785 -0.70501,5.70294 -0.70501,8.69158c-0.39169,5.09198 0.00163,9.51903 0.913,14.48635c0.40471,2.20581 0.52407,3.8052 1.67428,5.82446c2.34688,4.12005 5.6546,7.71454 10.23701,9.28995c2.13991,0.73569 4.52887,1.03397 6.70736,1.67172c1.43656,0.42055 2.69482,1.46826 4.18237,1.63487c2.95979,0.3315 5.86157,-2.68681 7.64636,-4.63283c1.57773,-3.20783 3.49392,-6.40469 5.75594,-9.18613c1.77535,-2.18301 4.36445,-4.54812 5.11032,-7.40335c1.90812,-7.3045 3.20272,-15.82462 2.58171,-23.49456c-0.18616,-2.29922 -0.82075,-3.89176 -1.42819,-5.99766c-0.5948,-2.06207 -0.71426,-4.47752 -1.15667,-6.60556c-4.11948,-3.7633 -8.54733,-7.39399 -13.16273,-10.4737c-1.91614,-1.27858 -1.88394,-1.78884 -3.90564,-2.42643c-2.51827,-0.79419 -3.49484,-0.86978 -5.88367,-1.23516l-1.15711,-0.1927c0,0 -0.41457,-0.0691 -0.82757,-0.33533zM343.69284,29.22552c2.11095,0.31768 3.39496,0.49388 5.8344,1.29505c4.48409,1.47268 8.21551,5.32932 11.74587,8.27256c2.57689,2.14833 5.11391,3.94693 7.43991,6.39556c0.65944,2.39267 0.79508,5.024 1.48686,7.3674c0.68827,2.33147 1.39271,4.31125 1.59298,6.84235c0.3102,3.92023 -0.04527,7.85776 -0.59561,11.71745c-0.63626,4.4623 -0.87403,8.82955 -2.10974,13.12685c-0.9922,3.45046 -3.64918,6.15025 -5.84145,8.83548c-2.20762,2.70403 -4.00053,5.83985 -5.57348,8.94094c-2.81543,3.1169 -6.61153,6.65778 -11.23601,6.31894c-0.84786,-0.06212 -4.00954,-1.51075 -4.88116,-1.76395c-2.23555,-0.64942 -4.69563,-0.9572 -6.88794,-1.72711c-5.48112,-1.92488 -9.63503,-6.08969 -12.42182,-11.103c-3.52839,-6.34741 -3.61407,-15.38681 -3.07742,-22.36334c0,-3.23639 0.0591,-6.26164 0.80558,-9.43549c0.41034,-1.74468 1.30746,-3.35227 1.70007,-5.10103c0.60516,-2.69559 1.09069,-5.30673 2.20871,-7.93184c1.71796,-4.03372 4.78107,-7.71345 7.11116,-11.36717c2.42565,-3.80354 5.81144,-7.62892 9.62676,-10.20393c0,0 1.62926,-1.08617 2.71544,0.54309c0.33634,0.50452 0.41231,0.95695 0.3569,1.34119z"/><path d="M386.53904,28.17673c-1.95813,0 -1.95813,-1.95813 -1.95813,-1.95813l0.09341,-3.15001c1.35414,-1.95723 2.98367,-3.807 4.95447,-5.14129c4.84538,-2.01487 10.89451,-5.687 16.36922,-5.33053c5.828,0.37947 13.18338,4.00284 16.48218,8.94605c2.23783,3.35335 2.69614,8.4501 3.80852,12.16653c0.42846,1.43148 2.05938,4.34255 2.29276,6.05164c0.62966,4.61098 0.33637,10.16335 -0.76245,14.64462c-1.06051,4.24102 -1.62373,8.64186 -3.37229,12.67194c-0.83914,1.93405 -2.23897,4.86818 -4.1366,6.06544c-0.68273,0.43075 -1.74168,-0.18399 -2.40618,0.27438c-0.61462,0.42397 -0.54507,1.39946 -0.93947,2.03346c-0.77796,1.25057 -1.71726,2.39393 -2.53437,3.61928c-3.19338,4.78883 -6.41669,10.16721 -10.90598,13.87683c-0.82473,0.6815 -1.58846,1.53088 -2.59827,1.88428c-0.64909,0.22716 -1.40982,-0.51789 -2.04678,-0.25867c-0.54849,0.22321 -3.33496,3.07096 -3.93278,3.66779c-0.6442,0.84763 -1.40612,1.61752 -1.9326,2.54288c-0.33794,0.59397 -0.25644,1.3771 -0.62508,1.95253c-0.15452,0.24119 -1.09628,0.28318 -0.80987,0.28738c3.55871,0.0522 7.43369,0.79499 11.17578,0.37221c3.76739,-0.42564 7.20841,-0.58676 11.01026,-0.73501c0.72778,-0.02838 1.52612,0.15467 2.17843,-0.16931c0.80383,-0.39923 1.08695,-1.57687 1.93413,-1.87322c3.42515,-1.19815 8.00934,0.7072 11.21364,1.7746c0,0 1.85764,0.61921 1.23843,2.47686c-0.61921,1.85764 -2.47686,1.23843 -2.47686,1.23843c-2.12762,-0.70969 -4.2297,-1.46346 -6.47032,-1.72935c-0.66575,-0.079 -1.39224,-0.41165 -2.00621,-0.14238c-0.75245,0.32998 -0.95868,1.4456 -1.7122,1.77311c-3.31881,1.44247 -7.43009,0.11443 -10.87708,0.55421c-3.24527,0.41405 -6.02349,0.75316 -9.30877,0.73879c-2.20664,-0.00965 -8.04008,-0.28098 -9.41535,-2.55438c-0.59023,-0.9757 0.36551,-2.25433 0.64866,-3.35895c0.54519,-2.1269 1.96778,-3.95126 3.27644,-5.71431c1.64373,-1.64598 3.75352,-3.94864 5.82971,-4.87147c0.62841,-0.27931 1.37965,0.42554 2.04678,0.25867c1.1078,-0.27709 1.62044,-1.6094 2.4279,-2.41686c2.79542,-2.79542 4.79081,-6.02414 7.08371,-9.23376c1.46539,-2.05127 2.9059,-4.10513 4.34966,-6.16154c0.69968,-0.99658 1.00536,-2.33827 1.97759,-3.07141c0.72838,-0.54925 1.89012,-0.0325 2.69869,-0.45488c0.56814,-0.29679 0.81467,-0.99652 1.13856,-1.54965c2.64053,-4.50931 3.23378,-9.73435 4.47933,-14.71772c1.01829,-3.98328 1.20505,-8.96368 0.69608,-13.06748c-0.24476,-1.97349 -1.60604,-3.64945 -2.17827,-5.55396c-1.01469,-3.37708 -1.36087,-8.18642 -3.38869,-11.23262c-2.61623,-3.93012 -8.86234,-6.73202 -13.41771,-7.09779c-4.58646,-0.36828 -10.21587,3.22228 -14.25994,4.87919c-1.17547,0.76533 -2.22048,1.76255 -3.06744,2.88063l0.09341,1.95485c0,0 0,1.95813 -1.95813,1.95813z"/><path d="M125.91875,156.66906c-2.41625,2.11244 -4.5467,4.76027 -6.159,7.29953c-2.25995,3.55925 -5.30567,7.13372 -6.95572,11.06344c-1.02606,2.44364 -1.40022,4.78453 -1.97204,7.27227c-0.40656,1.76877 -1.30615,3.3986 -1.72202,5.1652c-0.69866,2.96793 -0.71466,5.78101 -0.71466,8.81056c-0.39705,5.16169 0.00165,9.64934 0.9255,14.68466c0.41025,2.236 0.53124,3.85729 1.6972,5.90419c2.379,4.17645 5.73201,7.82015 10.37715,9.41713c2.1692,0.74576 4.59087,1.04812 6.79918,1.6946c1.45623,0.42631 2.73171,1.48836 4.23962,1.65725c3.00031,0.33604 5.94181,-2.72359 7.75103,-4.69625c1.59933,-3.25174 3.54175,-6.49236 5.83474,-9.31189c1.79965,-2.21289 4.4242,-4.61038 5.18027,-7.5047c1.93424,-7.40449 3.24656,-16.04125 2.61705,-23.81619c-0.18871,-2.3307 -0.83199,-3.94504 -1.44775,-6.07977c-0.60294,-2.0903 -0.72404,-4.53882 -1.1725,-6.69598c-4.17588,-3.81482 -8.66434,-7.49521 -13.34292,-10.61708c-1.94237,-1.29608 -1.90973,-1.81333 -3.9591,-2.45965c-2.55274,-0.80506 -3.54268,-0.88169 -5.96421,-1.25207l-1.17295,-0.19533c0,0 -0.42025,-0.07004 -0.8389,-0.33992zM129.28874,153.39548c2.13984,0.32203 3.44143,0.50064 5.91427,1.31278c4.54547,1.49284 8.32797,5.40228 11.90666,8.3858c2.61217,2.17774 5.18391,4.00096 7.54176,6.48311c0.66847,2.42542 0.80596,5.09277 1.50721,7.46825c0.69769,2.36339 1.41177,4.37027 1.61479,6.93602c0.31444,3.9739 -0.04589,7.96532 -0.60376,11.87785c-0.64497,4.52338 -0.88599,8.95042 -2.13862,13.30654c-1.00578,3.4977 -3.69913,6.23444 -5.92142,8.95643c-2.23784,2.74105 -4.05529,5.9198 -5.64977,9.06333c-2.85397,3.15957 -6.70203,6.74892 -11.38982,6.40545c-0.85947,-0.06297 -4.06443,-1.53143 -4.94798,-1.7881c-2.26616,-0.65831 -4.75991,-0.97031 -6.98223,-1.75075c-5.55615,-1.95123 -9.76693,-6.17306 -12.59187,-11.25499c-3.5767,-6.4343 -3.66355,-15.59744 -3.11955,-22.66947c0,-3.28069 0.05991,-6.34736 0.81661,-9.56465c0.41596,-1.76857 1.32536,-3.39816 1.72334,-5.17086c0.61345,-2.73249 1.10562,-5.37938 2.23895,-8.04042c1.74148,-4.08894 4.84652,-7.81904 7.20851,-11.52277c2.45885,-3.8556 5.891,-7.73335 9.75854,-10.34361c0,0 1.65157,-1.10104 2.75261,0.55052c0.34095,0.51142 0.41796,0.97005 0.36178,1.35955z"/><path d="M43.21613,224.27227c0,-1.98493 1.98493,-1.98493 1.98493,-1.98493h1.10887c1.23326,0 5.4983,-0.04451 6.11135,0.23487c0.77626,0.35376 0.5986,1.79437 1.36794,2.16293c0.62543,0.29962 1.31812,-0.47135 2.00761,-0.54584c2.07032,-0.22367 4.20351,0.47002 6.24673,0.06819c0.60278,-0.11855 0.98424,-0.7565 1.54855,-0.9993c1.02734,-0.44203 2.20213,-0.51539 3.19008,-1.03957c2.31766,-1.2297 4.07824,-3.70982 6.20603,-5.12919c0.59627,-0.39775 1.49066,-0.18818 2.05644,-0.62821c1.26917,-0.98707 1.61472,-2.8401 2.79704,-3.9297c1.93575,-1.78397 2.56224,-1.25321 3.70819,-3.24139c0.81459,-1.4133 0.98662,-4.18329 1.26789,-5.37831c0.16412,-0.69728 0.69317,-1.31891 0.68999,-2.03525c-0.00256,-0.57507 -0.60524,-1.00797 -0.70602,-1.57415c-0.15151,-0.85108 -0.02387,-1.72874 -0.03582,-2.59311c0,-2.34942 -0.40811,-5.44596 0.03582,-7.76785c0.25518,-1.33471 1.72217,-2.28489 1.83794,-3.63883c0.06694,-0.78289 -0.41388,-1.51602 -0.62362,-2.27325c-0.0792,-0.28594 0.03196,-0.74518 -0.24318,-0.85624c-0.3914,-0.15799 -0.81884,0.22642 -1.23977,0.25764c-0.24742,0.01836 -4.14658,-0.00503 -4.41848,-0.03846c-6.581,-0.80907 -13.00565,-1.6019 -19.46414,-0.02887c-1.74278,0.42447 -3.63878,-0.15798 -5.3834,0.21595l-1.48775,1.48775c-0.3592,0.3592 -0.85543,0.58137 -1.40356,0.58137c-1.09625,0 -1.98493,-0.88869 -1.98493,-1.98493v-2.21775h0.13667l-0.10086,-0.37537c1.06596,-2.66488 0.12472,-4.83011 0.77546,-7.54696c0.17667,-0.73758 0.91393,-1.24373 1.1455,-1.96596c0.24904,-0.77673 0.17655,-1.62177 0.26481,-2.43265c-0.00094,-2.39329 -0.22446,-4.78148 -0.371,-7.17027c-0.10821,-1.76402 0.37083,-3.54443 0.16303,-5.29951c-0.19579,-1.65362 -1.60408,-3.29126 -1.09012,-4.87513c0.9337,-2.87738 7.6078,-1.89041 9.5628,-1.88903c2.46958,0.00175 4.32374,-0.66443 6.6475,-1.07305c0.59027,-0.1038 4.38756,0.01594 5.03977,-0.03082c4.72857,-0.33896 9.04296,-1.48349 13.81681,-1.48349c0,0 1.98493,0 1.98493,1.98493c0,1.98493 -1.98493,1.98493 -1.98493,1.98493c-4.67158,0 -8.89353,1.14301 -13.53539,1.4735c-1.51967,0.10819 -3.07356,-0.31441 -4.57046,-0.03082c-0.61203,0.11594 -1.12009,0.57507 -1.72773,0.71216c-2.9147,0.65754 -6.03776,0.45167 -8.99712,0.43253c-0.73742,-0.00477 -1.48336,0.07771 -2.21201,-0.03582c-0.18608,-0.02899 -0.49823,-0.54726 -0.4228,-0.37472c0.40232,0.92026 1.21668,1.67372 1.42065,2.65716c0.38254,1.84439 -0.24977,3.76959 -0.12999,5.64942c0.16158,2.53606 0.36914,5.0735 0.36825,7.61471c-0.15814,1.16045 -0.14122,2.35857 -0.47443,3.48134c-0.19305,0.65049 -0.89902,1.07424 -1.07225,1.73028c-0.44433,1.68266 -0.1201,3.34359 -0.23261,5.04586c1.56506,-0.16955 3.28906,0.29606 4.82997,-0.10083c6.89359,-1.77551 13.85382,-0.97993 20.87447,-0.08706c1.94043,0.24677 5.56525,-0.71944 7.22905,0.27738c1.90338,1.14036 2.94111,5.47689 2.82945,7.21998c-0.0038,0.05933 -1.74125,3.05382 -1.85831,3.75366c-0.35476,2.1211 0.03582,4.88841 0.03582,7.01712c-0.02612,1.34385 0.74075,2.62037 0.73666,3.96447c-0.00329,1.07899 -0.5635,2.08422 -0.78851,3.13949c-0.4738,2.222 -0.51232,4.44332 -1.6891,6.44967c-1.02302,1.74421 -2.91683,2.80252 -4.42355,4.1511c-0.59762,0.53489 -2.95256,4.06782 -3.11695,4.20204c-0.65234,0.53259 -1.67821,0.38335 -2.37904,0.8503c-2.20204,1.46715 -3.95273,3.92986 -6.3612,5.22029c-1.07481,0.57587 -2.34181,0.6992 -3.46316,1.17818c-0.75693,0.32331 -1.34098,1.05511 -2.1477,1.21845c-0.74136,0.1501 -5.78658,0.03238 -7.05974,0.06819c-1.30321,0.03666 -2.68702,0.65475 -3.90639,0.19341c-0.86453,-0.32708 -0.78413,-1.81814 -1.58905,-2.27256c-0.59041,-0.33331 -1.34343,0.19735 -2.02039,0.23487c-0.73812,0.04091 -1.4785,0 -2.21775,0h-1.10887c0,0 -1.98493,0 -1.98493,-1.98493z"/><path d="M172.72147,152.33233c-1.98493,0 -1.98493,-1.98493 -1.98493,-1.98493l0.09469,-3.19313c1.37268,-1.98402 3.02451,-3.85912 5.0223,-5.21167c4.91171,-2.04245 11.04364,-5.76485 16.59331,-5.4035c5.90778,0.38466 13.36385,4.05764 16.70781,9.06852c2.26847,3.39925 2.73304,8.56577 3.86066,12.33308c0.43433,1.45108 2.08757,4.402 2.32415,6.13448c0.63828,4.6741 0.34098,10.30248 -0.77288,14.8451c-1.07503,4.29908 -1.64595,8.76016 -3.41845,12.84541c-0.85063,1.96052 -2.26962,4.93482 -4.19323,6.14847c-0.69207,0.43665 -1.76552,-0.18651 -2.43912,0.27814c-0.62303,0.42977 -0.55253,1.41861 -0.95233,2.0613c-0.78861,1.26769 -1.74077,2.42671 -2.56907,3.66883c-3.2371,4.85439 -6.50453,10.30639 -11.05527,14.06679c-0.83602,0.69083 -1.6102,1.55184 -2.63384,1.91008c-0.65797,0.23027 -1.42912,-0.52497 -2.0748,-0.26221c-0.556,0.22627 -3.38062,3.113 -3.98662,3.718c-0.65302,0.85923 -1.42537,1.63966 -1.95906,2.57769c-0.34257,0.6021 -0.25995,1.39595 -0.63364,1.97926c-0.15663,0.2445 -1.11129,0.28705 -0.82095,0.29132c3.60742,0.05292 7.53545,0.80587 11.32877,0.3773c3.81896,-0.43147 7.30709,-0.59479 11.16098,-0.74507c0.73774,-0.02877 1.54701,0.15679 2.20825,-0.17163c0.81484,-0.4047 1.10183,-1.59846 1.9606,-1.89886c3.47204,-1.21455 8.11898,0.71688 11.36715,1.79889c0,0 1.88307,0.62769 1.25538,2.51076c-0.62769,1.88307 -2.51076,1.25538 -2.51076,1.25538c-2.15675,-0.7194 -4.2876,-1.4835 -6.55889,-1.75303c-0.67486,-0.08008 -1.4113,-0.41728 -2.03367,-0.14433c-0.76275,0.3345 -0.9718,1.46539 -1.73564,1.79738c-3.36424,1.46221 -7.5318,0.11599 -11.02598,0.5618c-3.28969,0.41972 -6.10594,0.76347 -9.4362,0.74891c-2.23685,-0.00978 -8.15014,-0.28482 -9.54423,-2.58935c-0.59831,-0.98906 0.37052,-2.28519 0.65754,-3.40493c0.55265,-2.15602 1.99472,-4.00535 3.32129,-5.79254c1.66623,-1.66851 3.80491,-4.00269 5.90951,-4.93815c0.63701,-0.28314 1.39854,0.43137 2.0748,0.26221c1.12296,-0.28088 1.64262,-1.63143 2.46114,-2.44995c2.83369,-2.83369 4.85639,-6.1066 7.18068,-9.36017c1.48545,-2.07935 2.94568,-4.16133 4.40921,-6.24589c0.70926,-1.01022 1.01913,-2.37028 2.00466,-3.11345c0.73835,-0.55677 1.91599,-0.03294 2.73563,-0.46111c0.57592,-0.30085 0.82582,-1.01016 1.15415,-1.57087c2.67668,-4.57104 3.27805,-9.8676 4.54065,-14.91919c1.03223,-4.03781 1.22155,-9.08639 0.70561,-13.24636c-0.24811,-2.00051 -1.62802,-3.69941 -2.20809,-5.62999c-1.02858,-3.42331 -1.3795,-8.29848 -3.43508,-11.38639c-2.65204,-3.98392 -8.98366,-6.82417 -13.60139,-7.19496c-4.64925,-0.37333 -10.35572,3.2664 -14.45514,4.94598c-1.19156,0.77581 -2.25087,1.78668 -3.10943,2.92006l0.09469,1.98161c0,0 0,1.98493 -1.98493,1.98493z"/><path d="M340.00897,147.14049c-2.49618,2.18233 -4.69712,4.91775 -6.36276,7.54101c-2.33471,3.677 -5.4812,7.36972 -7.18583,11.42944c-1.06,2.52448 -1.44654,4.94282 -2.03728,7.51285c-0.42001,1.82729 -1.34936,3.51103 -1.77898,5.33608c-0.72178,3.06611 -0.73831,5.97226 -0.73831,9.10204c-0.41019,5.33245 0.00171,9.96856 0.95612,15.17046c0.42383,2.30997 0.54881,3.9849 1.75335,6.09952c2.45771,4.31462 5.92163,8.07885 10.72045,9.72867c2.24097,0.77043 4.74274,1.0828 7.02411,1.75066c1.5044,0.44041 2.82208,1.5376 4.37988,1.71208c3.09957,0.34716 6.13838,-2.81369 8.00745,-4.85162c1.65224,-3.35931 3.65891,-6.70714 6.02776,-9.61994c1.85919,-2.2861 4.57056,-4.7629 5.35165,-7.75297c1.99823,-7.64945 3.35397,-16.57193 2.70363,-24.60408c-0.19495,-2.4078 -0.85951,-4.07555 -1.49564,-6.2809c-0.62289,-2.15945 -0.74799,-4.68897 -1.21129,-6.9175c-4.31402,-3.94102 -8.95097,-7.74317 -13.78433,-10.96832c-2.00662,-1.33896 -1.9729,-1.87332 -4.09008,-2.54102c-2.63719,-0.8317 -3.65988,-0.91086 -6.16152,-1.29349l-1.21176,-0.2018c0,0 -0.43415,-0.07236 -0.86665,-0.35117zM343.49044,143.75861c2.21063,0.33268 3.55528,0.5172 6.10993,1.35621c4.69584,1.54223 8.60348,5.581 12.30056,8.66322c2.69859,2.24978 5.35541,4.13332 7.79125,6.69759c0.69058,2.50566 0.83262,5.26125 1.55708,7.71532c0.72077,2.44157 1.45848,4.51485 1.66821,7.16548c0.32485,4.10536 -0.04741,8.22883 -0.62373,12.2708c-0.6663,4.67302 -0.9153,9.24652 -2.20937,13.74675c-1.03905,3.61341 -3.82151,6.44069 -6.11731,9.25273c-2.31188,2.83173 -4.18945,6.11564 -5.83668,9.36317c-2.94838,3.26409 -6.92375,6.97219 -11.76662,6.61735c-0.8879,-0.06505 -4.19889,-1.58209 -5.11167,-1.84725c-2.34113,-0.68008 -4.91737,-1.00241 -7.21322,-1.80867c-5.73996,-2.01578 -10.09004,-6.37728 -13.00843,-11.62733c-3.69502,-6.64716 -3.78475,-16.11344 -3.22275,-23.41943c0,-3.38923 0.06189,-6.55734 0.84362,-9.88107c0.42972,-1.82707 1.36921,-3.51057 1.78035,-5.34192c0.63374,-2.82289 1.1422,-5.55734 2.31302,-8.30641c1.79909,-4.22421 5.00685,-8.07771 7.44698,-11.90397c2.5402,-3.98315 6.08589,-7.98919 10.08138,-10.6858c0,0 1.7062,-1.13747 2.84367,0.56874c0.35223,0.52834 0.43178,1.00214 0.37375,1.40453z"/><path d="M254.57036,216.98016c0,-2.0506 2.0506,-2.0506 2.0506,-2.0506h1.14555c1.27406,0 5.6802,-0.04598 6.31353,0.24263c0.80194,0.36547 0.6184,1.85373 1.4132,2.23449c0.64612,0.30953 1.36173,-0.48694 2.07402,-0.5639c2.13881,-0.23107 4.34257,0.48557 6.45339,0.07044c0.62273,-0.12247 1.0168,-0.78152 1.59978,-1.03236c1.06132,-0.45665 2.27498,-0.53244 3.29561,-1.07396c2.39434,-1.27038 4.21316,-3.83255 6.41134,-5.29888c0.61599,-0.41091 1.53997,-0.1944 2.12448,-0.64899c1.31116,-1.01972 1.66814,-2.93405 2.88957,-4.05971c1.99979,-1.84299 2.64701,-1.29467 3.83087,-3.34862c0.84154,-1.46005 1.01926,-4.32168 1.30984,-5.55623c0.16955,-0.72035 0.7161,-1.36254 0.71281,-2.10258c-0.00264,-0.5941 -0.62526,-1.04132 -0.72938,-1.62622c-0.15652,-0.87923 -0.02466,-1.78593 -0.037,-2.6789c0,-2.42714 -0.42161,-5.62613 0.037,-8.02483c0.26362,-1.37886 1.77915,-2.36048 1.89874,-3.75921c0.06915,-0.80879 -0.42757,-1.56617 -0.64425,-2.34846c-0.08182,-0.2954 0.03301,-0.76984 -0.25122,-0.88457c-0.40435,-0.16322 -0.84593,0.23391 -1.28079,0.26617c-0.2556,0.01896 -4.28376,-0.0052 -4.56465,-0.03973c-6.79871,-0.83584 -13.43591,-1.65489 -20.10805,-0.02982c-1.80043,0.43852 -3.75916,-0.16321 -5.56149,0.2231l-1.53696,1.53696c-0.37108,0.37108 -0.88373,0.6006 -1.44999,0.6006c-1.13251,0 -2.0506,-0.91809 -2.0506,-2.0506v-2.29112h0.1412l-0.10419,-0.38778c1.10122,-2.75304 0.12884,-4.9899 0.80111,-7.79663c0.18251,-0.76199 0.94416,-1.28488 1.18339,-2.031c0.25728,-0.80242 0.18239,-1.67542 0.27357,-2.51313c-0.00098,-2.47246 -0.23188,-4.93966 -0.38327,-7.40748c-0.11179,-1.82238 0.3831,-3.66169 0.16842,-5.47483c-0.20227,-1.70833 -1.65715,-3.40014 -1.12618,-5.03642c0.96459,-2.97257 7.85948,-1.95295 9.87916,-1.95152c2.55128,0.0018 4.46678,-0.68641 6.86741,-1.10855c0.6098,-0.10723 4.53271,0.01646 5.2065,-0.03184c4.885,-0.35018 9.34212,-1.53257 14.27391,-1.53257c0,0 2.0506,0 2.0506,2.0506c0,2.0506 -2.0506,2.0506 -2.0506,2.0506c-4.82613,0 -9.18774,1.18082 -13.98317,1.52225c-1.56995,0.11177 -3.17524,-0.32481 -4.72166,-0.03184c-0.63228,0.11978 -1.15714,0.5941 -1.78489,0.73572c-3.01112,0.67929 -6.23751,0.46661 -9.29476,0.44684c-0.76181,-0.00493 -1.53244,0.08028 -2.28519,-0.037c-0.19223,-0.02995 -0.51472,-0.56537 -0.43679,-0.38711c0.41563,0.95071 1.25693,1.72909 1.46765,2.74506c0.39519,1.90541 -0.25803,3.8943 -0.13429,5.83632c0.16693,2.61996 0.38135,5.24134 0.38044,7.86662c-0.16338,1.19884 -0.1459,2.43659 -0.49013,3.59651c-0.19943,0.67201 -0.92876,1.10978 -1.10772,1.78752c-0.45903,1.73832 -0.12407,3.45421 -0.24031,5.21279c1.61684,-0.17516 3.39786,0.30585 4.98976,-0.10416c7.12164,-1.83425 14.31214,-1.01235 21.56504,-0.08994c2.00462,0.25494 5.74936,-0.74324 7.4682,0.28656c1.96635,1.17808 3.03841,5.65808 2.92305,7.45884c-0.00393,0.06129 -1.79886,3.15484 -1.91979,3.87784c-0.3665,2.19127 0.037,5.05013 0.037,7.24926c-0.02699,1.38831 0.76526,2.70706 0.76103,4.09563c-0.0034,1.11469 -0.58214,2.15317 -0.8146,3.24336c-0.48947,2.29551 -0.52927,4.59032 -1.74498,6.66304c-1.05686,1.80191 -3.01333,2.89524 -4.56989,4.28843c-0.61739,0.55259 -3.05024,4.20239 -3.22007,4.34105c-0.67392,0.55021 -1.73373,0.39604 -2.45775,0.87843c-2.27489,1.51569 -4.08349,4.05987 -6.57164,5.39299c-1.11037,0.59492 -2.41928,0.72233 -3.57773,1.21715c-0.78197,0.33401 -1.38534,1.09002 -2.21875,1.25876c-0.76588,0.15507 -5.97801,0.03345 -7.29329,0.07044c-1.34632,0.03787 -2.77591,0.67641 -4.03562,0.19981c-0.89313,-0.33791 -0.81007,-1.87829 -1.64162,-2.34775c-0.60995,-0.34434 -1.38788,0.20388 -2.08723,0.24263c-0.76254,0.04226 -1.52741,0 -2.29112,0h-1.14555c0,0 -2.0506,0 -2.0506,-2.0506z"/><path d="M387.45499,217.74387c0,-2.0506 2.0506,-2.0506 2.0506,-2.0506h1.14555c1.27406,0 5.6802,-0.04598 6.31353,0.24263c0.80194,0.36547 0.6184,1.85373 1.4132,2.23449c0.64612,0.30953 1.36173,-0.48694 2.07402,-0.5639c2.13881,-0.23107 4.34257,0.48557 6.45339,0.07044c0.62273,-0.12247 1.0168,-0.78152 1.59978,-1.03236c1.06132,-0.45665 2.27498,-0.53244 3.29561,-1.07396c2.39434,-1.27038 4.21316,-3.83255 6.41134,-5.29888c0.61599,-0.41091 1.53997,-0.1944 2.12448,-0.64899c1.31116,-1.01972 1.66814,-2.93405 2.88957,-4.05971c1.99979,-1.84299 2.64701,-1.29467 3.83087,-3.34862c0.84154,-1.46005 1.01926,-4.32168 1.30984,-5.55623c0.16955,-0.72035 0.7161,-1.36254 0.71281,-2.10258c-0.00264,-0.5941 -0.62526,-1.04132 -0.72938,-1.62622c-0.15652,-0.87923 -0.02466,-1.78593 -0.037,-2.6789c0,-2.42714 -0.42161,-5.62613 0.037,-8.02483c0.26362,-1.37886 1.77915,-2.36048 1.89874,-3.75921c0.06915,-0.80879 -0.42757,-1.56617 -0.64425,-2.34846c-0.08182,-0.2954 0.03301,-0.76984 -0.25122,-0.88457c-0.40435,-0.16322 -0.84593,0.23391 -1.28079,0.26617c-0.2556,0.01896 -4.28376,-0.0052 -4.56465,-0.03973c-6.79871,-0.83584 -13.43591,-1.65489 -20.10805,-0.02982c-1.80043,0.43852 -3.75916,-0.16321 -5.56149,0.2231l-1.53696,1.53696c-0.37108,0.37108 -0.88373,0.6006 -1.44999,0.6006c-1.13251,0 -2.0506,-0.91809 -2.0506,-2.0506v-2.29112h0.1412l-0.10419,-0.38778c1.10122,-2.75304 0.12884,-4.9899 0.80111,-7.79663c0.18251,-0.76199 0.94416,-1.28488 1.18339,-2.031c0.25728,-0.80242 0.18239,-1.67542 0.27357,-2.51313c-0.00098,-2.47246 -0.23188,-4.93966 -0.38327,-7.40748c-0.11179,-1.82238 0.3831,-3.66169 0.16842,-5.47483c-0.20227,-1.70833 -1.65715,-3.40014 -1.12618,-5.03642c0.96459,-2.97257 7.85948,-1.95295 9.87916,-1.95152c2.55128,0.0018 4.46678,-0.68641 6.86741,-1.10855c0.6098,-0.10723 4.53271,0.01646 5.2065,-0.03184c4.885,-0.35018 9.34212,-1.53257 14.27391,-1.53257c0,0 2.0506,0 2.0506,2.0506c0,2.0506 -2.0506,2.0506 -2.0506,2.0506c-4.82613,0 -9.18774,1.18082 -13.98317,1.52225c-1.56995,0.11177 -3.17524,-0.32481 -4.72166,-0.03184c-0.63228,0.11978 -1.15714,0.5941 -1.78489,0.73572c-3.01112,0.67929 -6.23751,0.46661 -9.29476,0.44684c-0.76181,-0.00493 -1.53244,0.08028 -2.28519,-0.037c-0.19223,-0.02995 -0.51472,-0.56537 -0.43679,-0.38711c0.41563,0.95071 1.25693,1.72909 1.46765,2.74506c0.39519,1.90541 -0.25803,3.8943 -0.13429,5.83632c0.16693,2.61996 0.38135,5.24134 0.38044,7.86662c-0.16338,1.19884 -0.1459,2.43659 -0.49013,3.59651c-0.19943,0.67201 -0.92876,1.10978 -1.10772,1.78752c-0.45903,1.73832 -0.12407,3.45421 -0.24031,5.21279c1.61684,-0.17516 3.39786,0.30585 4.98976,-0.10416c7.12164,-1.83425 14.31214,-1.01235 21.56504,-0.08994c2.00462,0.25494 5.74936,-0.74324 7.4682,0.28656c1.96635,1.17808 3.03841,5.65808 2.92305,7.45884c-0.00393,0.06129 -1.79886,3.15484 -1.91979,3.87784c-0.3665,2.19127 0.037,5.05013 0.037,7.24926c-0.02699,1.38831 0.76526,2.70706 0.76103,4.09563c-0.0034,1.11469 -0.58214,2.15317 -0.8146,3.24336c-0.48947,2.29551 -0.52927,4.59032 -1.74498,6.66304c-1.05686,1.80191 -3.01333,2.89524 -4.56989,4.28843c-0.61739,0.55259 -3.05024,4.20239 -3.22007,4.34105c-0.67392,0.55021 -1.73373,0.39604 -2.45775,0.87843c-2.27489,1.51569 -4.08349,4.05987 -6.57164,5.39299c-1.11037,0.59492 -2.41928,0.72233 -3.57773,1.21715c-0.78197,0.33401 -1.38534,1.09002 -2.21875,1.25876c-0.76588,0.15507 -5.97801,0.03345 -7.29329,0.07044c-1.34632,0.03787 -2.77591,0.67641 -4.03562,0.19981c-0.89313,-0.33791 -0.81007,-1.87829 -1.64162,-2.34775c-0.60995,-0.34434 -1.38788,0.20388 -2.08723,0.24263c-0.76254,0.04226 -1.52741,0 -2.29112,0h-1.14555c0,0 -2.0506,0 -2.0506,-2.0506z"/><path d="M128.83466,263.83734c-2.58625,2.26107 -4.86659,5.09519 -6.59233,7.8131c-2.41895,3.80967 -5.67896,7.63563 -7.44509,11.84182c-1.09825,2.61557 -1.49873,5.12116 -2.11078,7.78391c-0.43517,1.89322 -1.39804,3.63771 -1.84317,5.52861c-0.74782,3.17674 -0.76494,6.18774 -0.76494,9.43044c-0.42498,5.52484 0.00177,10.32823 0.99062,15.71782c0.43912,2.39332 0.56862,4.12868 1.81661,6.31959c2.54638,4.47029 6.13529,8.37034 11.10725,10.07968c2.32182,0.79823 4.91386,1.12187 7.27754,1.81383c1.55868,0.4563 2.9239,1.59307 4.53791,1.77385c3.2114,0.35968 6.35986,-2.91521 8.29636,-5.02666c1.71185,-3.48052 3.79093,-6.94914 6.24525,-9.96703c1.92627,-2.36858 4.73547,-4.93475 5.54474,-8.0327c2.07033,-7.92545 3.47498,-17.16985 2.80118,-25.4918c-0.20199,-2.49468 -0.89052,-4.22259 -1.5496,-6.50752c-0.64536,-2.23737 -0.77498,-4.85815 -1.25499,-7.16709c-4.46967,-4.08321 -9.27393,-8.02255 -14.28167,-11.36406c-2.07902,-1.38727 -2.04409,-1.94091 -4.23765,-2.6327c-2.73234,-0.86171 -3.79193,-0.94372 -6.38383,-1.34016l-1.25548,-0.20908c0,0 -0.44982,-0.07497 -0.89792,-0.36384zM132.44174,260.33344c2.29039,0.34468 3.68356,0.53586 6.33038,1.40514c4.86527,1.59787 8.9139,5.78236 12.74437,8.9758c2.79595,2.33096 5.54863,4.28246 8.07236,6.93924c0.7155,2.59606 0.86267,5.45108 1.61326,7.99369c0.74677,2.52967 1.5111,4.67775 1.7284,7.42401c0.33657,4.25348 -0.04912,8.52573 -0.64624,12.71354c-0.69035,4.84163 -0.94833,9.58014 -2.28909,14.24274c-1.07654,3.74378 -3.95939,6.67307 -6.33802,9.58657c-2.39529,2.9339 -4.34061,6.33629 -6.04727,9.70099c-3.05476,3.38186 -7.17356,7.22375 -12.19117,6.85611c-0.91994,-0.0674 -4.35038,-1.63918 -5.2961,-1.9139c-2.42559,-0.70462 -5.09479,-1.03857 -7.47348,-1.87393c-5.94706,-2.08851 -10.45409,-6.60737 -13.47778,-12.04685c-3.82834,-6.88699 -3.9213,-16.69482 -3.33903,-24.26441c0,-3.51151 0.06412,-6.79393 0.87406,-10.23759c0.44523,-1.893 1.41861,-3.63724 1.84459,-5.53466c0.65661,-2.92474 1.18341,-5.75785 2.39647,-8.60611c1.864,-4.37663 5.1875,-8.36916 7.71567,-12.33347c2.63185,-4.12687 6.30547,-8.27744 10.44512,-11.07135c0,0 1.76776,-1.17851 2.94627,0.58926c0.36494,0.5474 0.44736,1.0383 0.38724,1.4552z"/><path d="M40.31339,336.19686c0,-2.12458 2.12458,-2.12458 2.12458,-2.12458h1.18689c1.32003,0 5.88514,-0.04764 6.54132,0.25139c0.83087,0.37865 0.64071,1.92062 1.46419,2.31511c0.66943,0.3207 1.41086,-0.50451 2.14886,-0.58424c2.21598,-0.23941 4.49925,0.50309 6.68623,0.07298c0.64519,-0.12689 1.05349,-0.80972 1.6575,-1.06961c1.09962,-0.47313 2.35706,-0.55165 3.41452,-1.11271c2.48072,-1.31621 4.36517,-3.97083 6.64266,-5.49006c0.63822,-0.42573 1.59554,-0.20142 2.20113,-0.67241c1.35847,-1.05651 1.72832,-3.03991 2.99383,-4.20618c2.07195,-1.90948 2.74251,-1.34138 3.96909,-3.46944c0.8719,-1.51273 1.05604,-4.47761 1.3571,-5.7567c0.17567,-0.74634 0.74194,-1.4117 0.73853,-2.17844c-0.00274,-0.61553 -0.64782,-1.07889 -0.7557,-1.6849c-0.16217,-0.91095 -0.02555,-1.85037 -0.03834,-2.77556c0,-2.51472 -0.43682,-5.82912 0.03834,-8.31437c0.27314,-1.42861 1.84334,-2.44564 1.96725,-3.89485c0.07165,-0.83797 -0.443,-1.62268 -0.66749,-2.43319c-0.08477,-0.30606 0.03421,-0.79761 -0.26029,-0.91649c-0.41894,-0.16911 -0.87645,0.24235 -1.327,0.27577c-0.26483,0.01965 -4.43832,-0.00539 -4.72935,-0.04117c-7.04402,-0.866 -13.92068,-1.7146 -20.83356,-0.0309c-1.86539,0.45434 -3.8948,-0.1691 -5.76215,0.23115l-1.59242,1.59242c-0.38447,0.38447 -0.91562,0.62227 -1.50231,0.62227c-1.17337,0 -2.12458,-0.95121 -2.12458,-2.12458v-2.37378h0.14629l-0.10795,-0.40178c1.14095,-2.85237 0.13349,-5.16994 0.83002,-8.07794c0.1891,-0.78948 0.97823,-1.33124 1.22609,-2.10428c0.26656,-0.83138 0.18897,-1.73587 0.28344,-2.6038c-0.00101,-2.56167 -0.24025,-5.11788 -0.3971,-7.67474c-0.11582,-1.88813 0.39692,-3.7938 0.1745,-5.67237c-0.20957,-1.76997 -1.71694,-3.52282 -1.16681,-5.21813c0.9994,-3.07982 8.14305,-2.02341 10.2356,-2.02193c2.64333,0.00187 4.62794,-0.71117 7.11519,-1.14855c0.6318,-0.1111 4.69626,0.01706 5.39435,-0.03299c5.06125,-0.36281 9.67919,-1.58786 14.78891,-1.58786c0,0 2.12458,0 2.12458,2.12458c0,2.12458 -2.12458,2.12458 -2.12458,2.12458c-5.00026,0 -9.51924,1.22343 -14.48769,1.57717c-1.62659,0.11581 -3.28981,-0.33653 -4.89202,-0.03299c-0.65509,0.1241 -1.19889,0.61553 -1.84929,0.76227c-3.11976,0.7038 -6.46256,0.48344 -9.63012,0.46296c-0.7893,-0.00511 -1.58773,0.08318 -2.36764,-0.03834c-0.19917,-0.03103 -0.53329,-0.58576 -0.45254,-0.40108c0.43063,0.98501 1.30228,1.79147 1.5206,2.8441c0.40945,1.97415 -0.26734,4.03481 -0.13913,6.0469c0.17295,2.71449 0.39511,5.43045 0.39416,8.15045c-0.16927,1.24209 -0.15116,2.52451 -0.50781,3.72627c-0.20663,0.69625 -0.96227,1.14982 -1.14769,1.85202c-0.47559,1.80104 -0.12855,3.57884 -0.24898,5.40087c1.67517,-0.18148 3.52046,0.31689 5.16979,-0.10792c7.37859,-1.90043 14.82852,-1.04887 22.34312,-0.09318c2.07695,0.26414 5.9568,-0.77006 7.73766,0.2969c2.0373,1.22059 3.14804,5.86223 3.02852,7.72795c-0.00407,0.0635 -1.86376,3.26867 -1.98905,4.01775c-0.37972,2.27033 0.03834,5.23234 0.03834,7.51082c-0.02796,1.4384 0.79287,2.80473 0.78848,4.2434c-0.00352,1.15491 -0.60314,2.23086 -0.84399,3.36038c-0.50713,2.37834 -0.54836,4.75594 -1.80794,6.90344c-1.09499,1.86692 -3.12205,2.9997 -4.73477,4.44316c-0.63966,0.57252 -3.16029,4.35401 -3.33625,4.49768c-0.69824,0.57006 -1.79628,0.41033 -2.54642,0.91012c-2.35697,1.57037 -4.23083,4.20635 -6.80875,5.58757c-1.15043,0.61638 -2.50657,0.74839 -3.70681,1.26107c-0.81018,0.34606 -1.43533,1.12934 -2.2988,1.30417c-0.79352,0.16066 -6.1937,0.03466 -7.55644,0.07298c-1.3949,0.03924 -2.87607,0.70082 -4.18122,0.20702c-0.92536,-0.3501 -0.8393,-1.94606 -1.70085,-2.43245c-0.63195,-0.35676 -1.43795,0.21123 -2.16254,0.25139c-0.79005,0.04378 -1.58252,0 -2.37378,0h-1.18689c0,0 -2.12458,0 -2.12458,-2.12458z"/><path d="M188.87246,265.11863c-0.4959,0.35234 -1.61829,0.90704 -2.74067,-0.21535c-1.50231,-1.50231 0,-3.00461 0,-3.00461l1.89793,-1.01791c3.86953,0 7.6961,-0.5673 11.51026,0.04451c1.31148,0.37316 2.76827,0.41287 3.93444,1.11948c0.85555,0.5184 1.22421,1.58245 1.8338,2.37561c1.73961,2.26347 3.41275,4.57909 5.02731,6.93339c2.29771,3.35047 6.01664,7.37109 7.12443,11.34501c0.66255,2.37669 0.16762,5.00584 -0.48142,7.38626c-0.23011,0.84395 -0.11782,1.78007 -0.46592,2.58258c-2.17433,5.01275 -7.57737,7.40418 -12.19819,9.51755c-4.67119,2.13641 -9.97224,4.65638 -14.93779,5.99445c-0.21058,0.05674 -0.43742,0.10746 -0.67298,0.1479c0.43695,0.24844 0.87517,0.49563 1.28688,0.77534c3.06455,2.08204 5.38766,5.57757 7.62638,8.37879c3.07577,3.84859 6.18964,7.14189 5.98503,12.51147c-0.05951,1.5617 -1.08282,4.8693 -1.70839,6.53887c-0.96103,2.5649 -1.05848,3.0072 -3.4417,4.88818c-3.83868,3.02975 -8.372,3.94719 -12.75027,5.82897c0,0 -1.9528,0.83692 -2.78971,-1.11588c-0.83692,-1.9528 1.11588,-2.78971 1.11588,-2.78971c4.03458,-1.72452 8.18974,-2.58387 11.77878,-5.24867c1.79791,-1.33492 2.26691,-3.15277 2.83584,-5.23454c0.5269,-1.92796 1.21666,-4.17871 0.4547,-6.20149c-0.87937,-2.33448 -3.31182,-4.66723 -4.82937,-6.56219c-1.93443,-2.41552 -3.93255,-5.69843 -6.61629,-7.4464c-1.22301,-0.79657 -2.59386,-1.41633 -3.64795,-2.42391l-1.781,-1.0686c-0.63647,-0.36698 -1.06488,-1.05438 -1.06488,-1.84185c0,-0.95572 0.63105,-1.76405 1.49921,-2.03105l2.3273,-0.77577l0.00953,0.02859c0.06362,-0.02926 0.12772,-0.05761 0.19235,-0.08498c0.95209,-0.40334 2.07947,-0.11083 3.07934,-0.37431c2.2816,-0.60124 4.3241,-1.89727 6.53946,-2.70927c3.80711,-1.39543 7.61657,-2.71307 11.21484,-4.63141c2.21513,-1.18095 5.52882,-3.05263 6.5416,-5.63265c0.26665,-0.6793 0.13327,-1.46094 0.32534,-2.16497c0.44489,-1.63075 1.00102,-3.43375 0.49561,-5.04678c-1.11019,-3.54323 -4.48575,-7.12383 -6.55112,-10.13662c-1.58819,-2.31673 -3.31578,-4.53491 -4.94761,-6.8211c-0.31136,-0.43622 -0.34877,-1.11938 -0.81306,-1.3871c-0.70459,-0.40626 -1.59709,-0.30869 -2.39564,-0.46304c-3.17514,-0.55625 -6.53365,-0.05052 -9.80228,0.03322z"/><path d="M336.95384,259.07724c-2.48272,2.17055 -4.67177,4.89122 -6.32843,7.50033c-2.32212,3.65716 -5.45163,7.32996 -7.14706,11.36778c-1.05428,2.51086 -1.43874,4.91615 -2.02629,7.47232c-0.41775,1.81743 -1.34208,3.49209 -1.76939,5.30729c-0.71788,3.04957 -0.73432,5.94004 -0.73432,9.05293c-0.40797,5.30368 0.0017,9.91478 0.95096,15.08861c0.42154,2.29751 0.54585,3.9634 1.74389,6.06661c2.44445,4.29134 5.88969,8.03527 10.66261,9.67618c2.22888,0.76628 4.71716,1.07696 6.98621,1.74122c1.49628,0.43803 2.80686,1.5293 4.35625,1.70284c3.08285,0.34529 6.10526,-2.79851 7.96425,-4.82544c1.64333,-3.34119 3.63917,-6.67096 5.99524,-9.56804c1.84916,-2.27376 4.5459,-4.7372 5.32278,-7.71115c1.98745,-7.60818 3.33587,-16.48252 2.68904,-24.47134c-0.1939,-2.39481 -0.85487,-4.05356 -1.48757,-6.24701c-0.61953,-2.1478 -0.74396,-4.66367 -1.20475,-6.88018c-4.29075,-3.91976 -8.90268,-7.7014 -13.70996,-10.90914c-1.9958,-1.33173 -1.96226,-1.86321 -4.06801,-2.52731c-2.62296,-0.82721 -3.64014,-0.90594 -6.12828,-1.28651l-1.20522,-0.20071c0,0 -0.43181,-0.07197 -0.86197,-0.34927zM340.41652,255.71361c2.19871,0.33089 3.5361,0.51441 6.07696,1.34889c4.67051,1.53391 8.55706,5.55089 12.2342,8.61649c2.68403,2.23765 5.32651,4.11102 7.74922,6.66145c0.68686,2.49214 0.82813,5.23287 1.54868,7.67369c0.71688,2.4284 1.45061,4.49049 1.65921,7.12682c0.32309,4.08321 -0.04715,8.18444 -0.62037,12.2046c-0.66271,4.64781 -0.91037,9.19664 -2.19745,13.67259c-1.03345,3.59391 -3.80089,6.40594 -6.08431,9.20281c-2.2994,2.81645 -4.16685,6.08264 -5.80519,9.31265c-2.93248,3.24648 -6.8864,6.93457 -11.70314,6.58165c-0.88311,-0.0647 -4.17623,-1.57356 -5.08409,-1.83729c-2.3285,-0.67642 -4.89084,-0.997 -7.17431,-1.79891c-5.70899,-2.0049 -10.0356,-6.34287 -12.93825,-11.5646c-3.67509,-6.6113 -3.76433,-16.02651 -3.20536,-23.29308c0,-3.37094 0.06155,-6.52197 0.83907,-9.82777c0.4274,-1.81722 1.36182,-3.49163 1.77075,-5.3131c0.63032,-2.80766 1.13604,-5.52736 2.30054,-8.2616c1.78938,-4.20142 4.97984,-8.03413 7.40681,-11.83975c2.52649,-3.96167 6.05305,-7.94608 10.02699,-10.62815c0,0 1.697,-1.13133 2.82833,0.56567c0.35033,0.52549 0.42945,0.99674 0.37173,1.39695z"/><path d="M251.97617,328.54013c0,-2.03953 2.03953,-2.03953 2.03953,-2.03953h1.13937c1.26719,0 5.64955,-0.04573 6.27947,0.24133c0.79761,0.36349 0.61507,1.84373 1.40557,2.22243c0.64263,0.30786 1.35438,-0.48432 2.06283,-0.56086c2.12728,-0.22982 4.31914,0.48295 6.41857,0.07006c0.61937,-0.12181 1.01132,-0.77731 1.59115,-1.02679c1.0556,-0.45419 2.26271,-0.52957 3.27783,-1.06817c2.38142,-1.26352 4.19043,-3.81187 6.37675,-5.27029c0.61267,-0.40869 1.53167,-0.19336 2.11301,-0.64549c1.30409,-1.01422 1.65914,-2.91822 2.87398,-4.0378c1.989,-1.83304 2.63273,-1.28768 3.8102,-3.33055c0.837,-1.45217 1.01376,-4.29837 1.30277,-5.52626c0.16864,-0.71646 0.71224,-1.35519 0.70897,-2.09123c-0.00263,-0.59089 -0.62189,-1.0357 -0.72545,-1.61745c-0.15567,-0.87449 -0.02453,-1.7763 -0.0368,-2.66445c0,-2.41405 -0.41934,-5.59577 0.0368,-7.98154c0.2622,-1.37142 1.76955,-2.34774 1.88849,-3.73893c0.06878,-0.80443 -0.42527,-1.55772 -0.64077,-2.33579c-0.08138,-0.29381 0.03284,-0.76568 -0.24987,-0.8798c-0.40217,-0.16234 -0.84137,0.23265 -1.27388,0.26473c-0.25422,0.01886 -4.26064,-0.00517 -4.54003,-0.03952c-6.76204,-0.83133 -13.36342,-1.64596 -19.99957,-0.02966c-1.79072,0.43615 -3.73888,-0.16233 -5.53149,0.22189l-1.52867,1.52867c-0.36908,0.36908 -0.87897,0.59736 -1.44217,0.59736c-1.1264,0 -2.03953,-0.91313 -2.03953,-2.03953v-2.27876h0.14043l-0.10363,-0.38569c1.09528,-2.73819 0.12815,-4.96298 0.79679,-7.75457c0.18153,-0.75787 0.93907,-1.27795 1.17701,-2.02004c0.25589,-0.79809 0.1814,-1.66638 0.2721,-2.49957c-0.00097,-2.45912 -0.23063,-4.91301 -0.38121,-7.36752c-0.11119,-1.81255 0.38103,-3.64193 0.16751,-5.4453c-0.20118,-1.69911 -1.6482,-3.3818 -1.1201,-5.00924c0.95939,-2.95653 7.81708,-1.94241 9.82586,-1.94099c2.53752,0.00179 4.44268,-0.68271 6.83036,-1.10257c0.60651,-0.10665 4.50826,0.01637 5.17841,-0.03167c4.85864,-0.34829 9.29172,-1.5243 14.1969,-1.5243c0,0 2.03953,0 2.03953,2.03953c0,2.03953 -2.03953,2.03953 -2.03953,2.03953c-4.80009,0 -9.13817,1.17445 -13.90773,1.51404c-1.56148,0.11117 -3.15811,-0.32305 -4.69619,-0.03167c-0.62887,0.11913 -1.1509,0.59089 -1.77526,0.73175c-2.99488,0.67562 -6.20386,0.46409 -9.24461,0.44443c-0.7577,-0.0049 -1.52417,0.07985 -2.27286,-0.0368c-0.19119,-0.02979 -0.51194,-0.56232 -0.43443,-0.38502c0.41339,0.94558 1.25014,1.71976 1.45973,2.73025c0.39306,1.89513 -0.25664,3.87329 -0.13357,5.80483c0.16603,2.60582 0.3793,5.21307 0.37838,7.82418c-0.16249,1.19237 -0.14511,2.42345 -0.48748,3.57711c-0.19836,0.66838 -0.92375,1.1038 -1.10175,1.77788c-0.45655,1.72895 -0.1234,3.43557 -0.23901,5.18467c1.60812,-0.17422 3.37953,0.3042 4.96284,-0.1036c7.08322,-1.82436 14.23492,-1.00689 21.4487,-0.08945c1.99381,0.25356 5.71834,-0.73923 7.42791,0.28501c1.95574,1.17173 3.02202,5.62756 2.90728,7.41859c-0.00391,0.06096 -1.78915,3.13782 -1.90943,3.85691c-0.36452,2.17945 0.0368,5.02288 0.0368,7.21015c-0.02684,1.38082 0.76113,2.69245 0.75692,4.07353c-0.00338,1.10867 -0.579,2.14155 -0.8102,3.22586c-0.48683,2.28313 -0.52641,4.56555 -1.73556,6.62709c-1.05116,1.79219 -2.99707,2.87962 -4.54523,4.26529c-0.61405,0.54961 -3.03378,4.17972 -3.2027,4.31763c-0.67029,0.54724 -1.72438,0.3939 -2.44449,0.87369c-2.26262,1.50751 -4.06146,4.03797 -6.53619,5.36389c-1.10438,0.59171 -2.40623,0.71843 -3.55842,1.21059c-0.77775,0.33221 -1.37787,1.08413 -2.20678,1.25196c-0.76175,0.15423 -5.94576,0.03327 -7.25395,0.07006c-1.33906,0.03767 -2.76093,0.67276 -4.01384,0.19873c-0.88832,-0.33608 -0.8057,-1.86816 -1.63276,-2.33508c-0.60666,-0.34248 -1.38039,0.20278 -2.07597,0.24133c-0.75842,0.04203 -1.51917,0 -2.27876,0h-1.13937c0,0 -2.03953,0 -2.03953,-2.03953z"/><path d="M406.83561,256.79849c-2.48272,2.17055 -4.67177,4.89122 -6.32843,7.50033c-2.32212,3.65716 -5.45163,7.32996 -7.14706,11.36778c-1.05428,2.51086 -1.43874,4.91615 -2.02629,7.47232c-0.41775,1.81743 -1.34208,3.49209 -1.76939,5.30729c-0.71788,3.04957 -0.73432,5.94004 -0.73432,9.05293c-0.40797,5.30368 0.0017,9.91478 0.95096,15.08861c0.42154,2.29751 0.54585,3.9634 1.74389,6.06661c2.44445,4.29134 5.88969,8.03527 10.66261,9.67618c2.22888,0.76628 4.71716,1.07696 6.98621,1.74122c1.49628,0.43803 2.80686,1.5293 4.35625,1.70284c3.08285,0.34529 6.10526,-2.79851 7.96425,-4.82544c1.64333,-3.34119 3.63917,-6.67096 5.99524,-9.56804c1.84916,-2.27376 4.5459,-4.7372 5.32278,-7.71115c1.98745,-7.60818 3.33587,-16.48252 2.68904,-24.47134c-0.1939,-2.39481 -0.85487,-4.05356 -1.48757,-6.24701c-0.61953,-2.1478 -0.74396,-4.66367 -1.20475,-6.88018c-4.29075,-3.91976 -8.90268,-7.7014 -13.70996,-10.90914c-1.9958,-1.33173 -1.96226,-1.86321 -4.06801,-2.52731c-2.62296,-0.82721 -3.64014,-0.90594 -6.12828,-1.28651l-1.20522,-0.20071c0,0 -0.43181,-0.07197 -0.86197,-0.34927zM410.2983,253.43486c2.19871,0.33089 3.5361,0.51441 6.07696,1.34889c4.67051,1.53391 8.55706,5.55089 12.2342,8.61649c2.68403,2.23765 5.32651,4.11102 7.74922,6.66145c0.68686,2.49214 0.82813,5.23287 1.54868,7.67369c0.71688,2.4284 1.45061,4.49049 1.65921,7.12682c0.32309,4.08321 -0.04715,8.18444 -0.62037,12.2046c-0.66271,4.64781 -0.91037,9.19664 -2.19745,13.67259c-1.03345,3.59391 -3.80089,6.40594 -6.08431,9.20281c-2.2994,2.81645 -4.16685,6.08264 -5.80519,9.31265c-2.93248,3.24648 -6.8864,6.93457 -11.70314,6.58165c-0.88311,-0.0647 -4.17623,-1.57356 -5.08409,-1.83729c-2.3285,-0.67642 -4.89084,-0.997 -7.17431,-1.79891c-5.70899,-2.0049 -10.0356,-6.34287 -12.93825,-11.5646c-3.67509,-6.6113 -3.76433,-16.02651 -3.20536,-23.29308c0,-3.37094 0.06155,-6.52197 0.83907,-9.82777c0.4274,-1.81722 1.36182,-3.49163 1.77075,-5.3131c0.63032,-2.80766 1.13604,-5.52736 2.30054,-8.2616c1.78938,-4.20142 4.97984,-8.03413 7.40681,-11.83975c2.52649,-3.96167 6.05305,-7.94608 10.02699,-10.62815c0,0 1.697,-1.13133 2.82833,0.56567c0.35033,0.52549 0.42945,0.99674 0.37173,1.39695z"/></g></g></svg>